<?xml version="1.0" encoding="UTF-8" standalone="no"?>
<!DOCTYPE svg PUBLIC "-//W3C//DTD SVG 1.1//EN" "http://www.w3.org/Graphics/SVG/1.1/DTD/svg11.dtd">
<svg xmlns="http://www.w3.org/2000/svg" version="1.1" viewBox="0.00 0.00 366.00 316.00">
<g stroke-width="2.00" fill="none" stroke-linecap="butt">
<path stroke="#8099cf" vector-effect="non-scaling-stroke" d="
  M 260.44 101.07
  A 0.53 0.53 0.0 0 1 260.48 100.08
  Q 265.60 98.39 270.33 96.42
  C 273.28 95.20 273.42 90.48 270.06 89.93
  Q 243.05 85.55 215.95 81.51
  Q 213.75 81.18 211.64 81.90
  Q 169.98 95.99 128.28 109.97
  Q 123.20 111.67 118.59 113.69
  A 1.78 1.77 -11.5 0 0 117.52 115.30
  Q 117.04 158.10 117.33 200.69
  C 117.37 207.91 120.46 210.75 126.80 214.31
  Q 163.31 234.76 199.88 255.09
  C 201.91 256.21 203.74 257.41 205.94 256.18
  Q 244.72 234.61 283.40 212.88
  Q 290.43 208.93 290.46 200.50
  Q 290.63 157.68 290.33 115.08
  A 1.42 1.40 11.8 0 0 289.49 113.81
  L 260.44 101.07"
/>
<path stroke="#8099cf" vector-effect="non-scaling-stroke" d="
  M 71.75 168.48
  C 77.06 162.78 91.00 153.67 81.52 144.71
  A 1.07 1.06 44.8 0 0 80.05 144.71
  Q 69.97 154.29 60.28 164.17
  C 56.52 168.01 58.09 171.71 61.53 175.17
  Q 70.40 184.09 79.58 192.85
  A 1.51 1.51 0.0 0 0 81.68 192.84
  C 90.74 184.02 77.14 174.85 71.76 169.35
  Q 71.35 168.92 71.75 168.48"
/>
<path stroke="#8099cf" vector-effect="non-scaling-stroke" d="
  M 335.96 168.38
  A 0.95 0.95 0.0 0 1 335.94 169.72
  C 330.41 175.11 316.60 184.92 326.63 193.34
  A 0.81 0.79 -46.7 0 0 327.69 193.30
  Q 337.44 184.04 346.80 174.50
  C 349.94 171.31 350.88 167.46 347.57 164.18
  Q 337.91 154.60 327.87 144.84
  A 0.97 0.97 0.0 0 0 326.56 144.80
  C 316.59 153.48 330.63 162.85 335.96 168.38"
/>
<path stroke="#8099cf" vector-effect="non-scaling-stroke" d="
  M 141.57 115.06
  C 154.47 115.44 168.05 117.63 180.95 119.04
  Q 183.27 119.30 185.46 118.54
  Q 219.13 106.83 252.98 94.94
  A 0.31 0.31 0.0 0 0 252.93 94.34
  Q 235.06 91.52 216.92 88.64
  Q 214.80 88.30 212.78 88.98
  Q 175.63 101.53 138.50 114.25
  Q 138.00 114.42 138.51 114.56
  Q 140.14 115.01 141.57 115.06"
/>
<path stroke="#8099cf" vector-effect="non-scaling-stroke" d="
  M 248.75 129.69
  A 0.34 0.34 0.0 0 0 249.03 129.69
  L 277.40 116.97
  A 0.34 0.34 0.0 0 0 277.40 116.35
  L 249.31 103.84
  A 0.34 0.34 0.0 0 0 249.06 103.83
  L 217.41 115.01
  A 0.34 0.34 0.0 0 0 217.39 115.64
  L 248.75 129.69"
/>
<path stroke="#8099cf" vector-effect="non-scaling-stroke" d="
  M 185.24 125.84
  Q 183.46 126.42 181.07 126.14
  Q 164.41 124.19 142.80 122.31
  Q 142.17 122.25 142.75 122.52
  Q 172.68 136.28 202.65 149.95
  C 203.61 150.39 204.33 150.37 205.23 149.96
  Q 222.37 142.13 239.62 134.14
  A 0.37 0.37 0.0 0 0 239.62 133.47
  L 207.18 118.79
  Q 206.71 118.58 206.23 118.75
  Q 195.70 122.43 185.24 125.84"
/>
<path stroke="#8099cf" vector-effect="non-scaling-stroke" d="
  M 127.73 206.53
  C 145.85 216.79 169.99 230.85 199.44 246.62
  Q 200.01 246.92 200.01 246.28
  L 200.00 157.26
  Q 200.00 156.73 199.51 156.51
  L 124.67 122.34
  Q 124.08 122.07 124.08 122.72
  Q 123.83 160.47 124.06 198.23
  C 124.08 201.99 124.52 204.71 127.73 206.53"
/>
<path stroke="#8099cf" vector-effect="non-scaling-stroke" d="
  M 264.51 188.17
  A 0.42 0.42 0.0 0 1 265.26 188.44
  L 265.22 214.04
  Q 265.22 214.66 265.78 214.38
  Q 273.08 210.60 280.15 206.35
  Q 283.72 204.21 283.73 199.75
  Q 283.78 161.17 283.74 122.55
  A 0.31 0.31 0.0 0 0 283.30 122.27
  L 208.24 156.49
  Q 207.75 156.72 207.75 157.26
  L 207.75 246.27
  Q 207.75 246.97 208.36 246.62
  L 236.98 230.36
  Q 237.43 230.11 237.43 229.59
  L 237.66 200.69
  Q 237.66 200.00 238.30 200.27
  L 240.95 201.38
  Q 241.42 201.57 241.68 201.14
  L 243.82 197.56
  Q 244.14 197.04 244.72 197.22
  L 247.66 198.12
  Q 248.16 198.27 248.44 197.85
  L 250.89 194.19
  Q 251.19 193.75 251.68 193.94
  L 254.28 194.96
  Q 254.86 195.19 255.18 194.67
  L 257.16 191.52
  Q 257.43 191.09 257.94 191.18
  L 261.06 191.77
  Q 261.60 191.87 261.94 191.44
  L 264.51 188.17"
/>
</g>
<path fill="#00339f" d="
  M 0.00 0.00
  L 366.00 0.00
  L 366.00 316.00
  L 0.00 316.00
  L 0.00 0.00
  Z
  M 260.44 101.07
  A 0.53 0.53 0.0 0 1 260.48 100.08
  Q 265.60 98.39 270.33 96.42
  C 273.28 95.20 273.42 90.48 270.06 89.93
  Q 243.05 85.55 215.95 81.51
  Q 213.75 81.18 211.64 81.90
  Q 169.98 95.99 128.28 109.97
  Q 123.20 111.67 118.59 113.69
  A 1.78 1.77 -11.5 0 0 117.52 115.30
  Q 117.04 158.10 117.33 200.69
  C 117.37 207.91 120.46 210.75 126.80 214.31
  Q 163.31 234.76 199.88 255.09
  C 201.91 256.21 203.74 257.41 205.94 256.18
  Q 244.72 234.61 283.40 212.88
  Q 290.43 208.93 290.46 200.50
  Q 290.63 157.68 290.33 115.08
  A 1.42 1.40 11.8 0 0 289.49 113.81
  L 260.44 101.07
  Z
  M 71.75 168.48
  C 77.06 162.78 91.00 153.67 81.52 144.71
  A 1.07 1.06 44.8 0 0 80.05 144.71
  Q 69.97 154.29 60.28 164.17
  C 56.52 168.01 58.09 171.71 61.53 175.17
  Q 70.40 184.09 79.58 192.85
  A 1.51 1.51 0.0 0 0 81.68 192.84
  C 90.74 184.02 77.14 174.85 71.76 169.35
  Q 71.35 168.92 71.75 168.48
  Z
  M 335.96 168.38
  A 0.95 0.95 0.0 0 1 335.94 169.72
  C 330.41 175.11 316.60 184.92 326.63 193.34
  A 0.81 0.79 -46.7 0 0 327.69 193.30
  Q 337.44 184.04 346.80 174.50
  C 349.94 171.31 350.88 167.46 347.57 164.18
  Q 337.91 154.60 327.87 144.84
  A 0.97 0.97 0.0 0 0 326.56 144.80
  C 316.59 153.48 330.63 162.85 335.96 168.38
  Z"
/>
<path fill="#ffffff" d="
  M 260.44 101.07
  L 289.49 113.81
  A 1.42 1.40 11.8 0 1 290.33 115.08
  Q 290.63 157.68 290.46 200.50
  Q 290.43 208.93 283.40 212.88
  Q 244.72 234.61 205.94 256.18
  C 203.74 257.41 201.91 256.21 199.88 255.09
  Q 163.31 234.76 126.80 214.31
  C 120.46 210.75 117.37 207.91 117.33 200.69
  Q 117.04 158.10 117.52 115.30
  A 1.78 1.77 -11.5 0 1 118.59 113.69
  Q 123.20 111.67 128.28 109.97
  Q 169.98 95.99 211.64 81.90
  Q 213.75 81.18 215.95 81.51
  Q 243.05 85.55 270.06 89.93
  C 273.42 90.48 273.28 95.20 270.33 96.42
  Q 265.60 98.39 260.48 100.08
  A 0.53 0.53 0.0 0 0 260.44 101.07
  Z
  M 141.57 115.06
  C 154.47 115.44 168.05 117.63 180.95 119.04
  Q 183.27 119.30 185.46 118.54
  Q 219.13 106.83 252.98 94.94
  A 0.31 0.31 0.0 0 0 252.93 94.34
  Q 235.06 91.52 216.92 88.64
  Q 214.80 88.30 212.78 88.98
  Q 175.63 101.53 138.50 114.25
  Q 138.00 114.42 138.51 114.56
  Q 140.14 115.01 141.57 115.06
  Z
  M 248.75 129.69
  A 0.34 0.34 0.0 0 0 249.03 129.69
  L 277.40 116.97
  A 0.34 0.34 0.0 0 0 277.40 116.35
  L 249.31 103.84
  A 0.34 0.34 0.0 0 0 249.06 103.83
  L 217.41 115.01
  A 0.34 0.34 0.0 0 0 217.39 115.64
  L 248.75 129.69
  Z
  M 185.24 125.84
  Q 183.46 126.42 181.07 126.14
  Q 164.41 124.19 142.80 122.31
  Q 142.17 122.25 142.75 122.52
  Q 172.68 136.28 202.65 149.95
  C 203.61 150.39 204.33 150.37 205.23 149.96
  Q 222.37 142.13 239.62 134.14
  A 0.37 0.37 0.0 0 0 239.62 133.47
  L 207.18 118.79
  Q 206.71 118.58 206.23 118.75
  Q 195.70 122.43 185.24 125.84
  Z
  M 127.73 206.53
  C 145.85 216.79 169.99 230.85 199.44 246.62
  Q 200.01 246.92 200.01 246.28
  L 200.00 157.26
  Q 200.00 156.73 199.51 156.51
  L 124.67 122.34
  Q 124.08 122.07 124.08 122.72
  Q 123.83 160.47 124.06 198.23
  C 124.08 201.99 124.52 204.71 127.73 206.53
  Z
  M 264.51 188.17
  A 0.42 0.42 0.0 0 1 265.26 188.44
  L 265.22 214.04
  Q 265.22 214.66 265.78 214.38
  Q 273.08 210.60 280.15 206.35
  Q 283.72 204.21 283.73 199.75
  Q 283.78 161.17 283.74 122.55
  A 0.31 0.31 0.0 0 0 283.30 122.27
  L 208.24 156.49
  Q 207.75 156.72 207.75 157.26
  L 207.75 246.27
  Q 207.75 246.97 208.36 246.62
  L 236.98 230.36
  Q 237.43 230.11 237.43 229.59
  L 237.66 200.69
  Q 237.66 200.00 238.30 200.27
  L 240.95 201.38
  Q 241.42 201.57 241.68 201.14
  L 243.82 197.56
  Q 244.14 197.04 244.72 197.22
  L 247.66 198.12
  Q 248.16 198.27 248.44 197.85
  L 250.89 194.19
  Q 251.19 193.75 251.68 193.94
  L 254.28 194.96
  Q 254.86 195.19 255.18 194.67
  L 257.16 191.52
  Q 257.43 191.09 257.94 191.18
  L 261.06 191.77
  Q 261.60 191.87 261.94 191.44
  L 264.51 188.17
  Z"
/>
<path fill="#00339f" d="
  M 141.57 115.06
  Q 140.14 115.01 138.51 114.56
  Q 138.00 114.42 138.50 114.25
  Q 175.63 101.53 212.78 88.98
  Q 214.80 88.30 216.92 88.64
  Q 235.06 91.52 252.93 94.34
  A 0.31 0.31 0.0 0 1 252.98 94.94
  Q 219.13 106.83 185.46 118.54
  Q 183.27 119.30 180.95 119.04
  C 168.05 117.63 154.47 115.44 141.57 115.06
  Z"
/>
<path fill="#00339f" d="
  M 248.75 129.69
  L 217.39 115.64
  A 0.34 0.34 0.0 0 1 217.41 115.01
  L 249.06 103.83
  A 0.34 0.34 0.0 0 1 249.31 103.84
  L 277.40 116.35
  A 0.34 0.34 0.0 0 1 277.40 116.97
  L 249.03 129.69
  A 0.34 0.34 0.0 0 1 248.75 129.69
  Z"
/>
<path fill="#00339f" d="
  M 185.24 125.84
  Q 195.70 122.43 206.23 118.75
  Q 206.71 118.58 207.18 118.79
  L 239.62 133.47
  A 0.37 0.37 0.0 0 1 239.62 134.14
  Q 222.37 142.13 205.23 149.96
  C 204.33 150.37 203.61 150.39 202.65 149.95
  Q 172.68 136.28 142.75 122.52
  Q 142.17 122.25 142.80 122.31
  Q 164.41 124.19 181.07 126.14
  Q 183.46 126.42 185.24 125.84
  Z"
/>
<path fill="#00339f" d="
  M 199.44 246.62
  C 169.99 230.85 145.85 216.79 127.73 206.53
  C 124.52 204.71 124.08 201.99 124.06 198.23
  Q 123.83 160.47 124.08 122.72
  Q 124.08 122.07 124.67 122.34
  L 199.51 156.51
  Q 200.00 156.73 200.00 157.26
  L 200.01 246.28
  Q 200.01 246.92 199.44 246.62
  Z"
/>
<path fill="#00339f" d="
  M 264.51 188.17
  L 261.94 191.44
  Q 261.60 191.87 261.06 191.77
  L 257.94 191.18
  Q 257.43 191.09 257.16 191.52
  L 255.18 194.67
  Q 254.86 195.19 254.28 194.96
  L 251.68 193.94
  Q 251.19 193.75 250.89 194.19
  L 248.44 197.85
  Q 248.16 198.27 247.66 198.12
  L 244.72 197.22
  Q 244.14 197.04 243.82 197.56
  L 241.68 201.14
  Q 241.42 201.57 240.95 201.38
  L 238.30 200.27
  Q 237.66 200.00 237.66 200.69
  L 237.43 229.59
  Q 237.43 230.11 236.98 230.36
  L 208.36 246.62
  Q 207.75 246.97 207.75 246.27
  L 207.75 157.26
  Q 207.75 156.72 208.24 156.49
  L 283.30 122.27
  A 0.31 0.31 0.0 0 1 283.74 122.55
  Q 283.78 161.17 283.73 199.75
  Q 283.72 204.21 280.15 206.35
  Q 273.08 210.60 265.78 214.38
  Q 265.22 214.66 265.22 214.04
  L 265.26 188.44
  A 0.42 0.42 0.0 0 0 264.51 188.17
  Z"
/>
<path fill="#ffffff" d="
  M 71.76 169.35
  C 77.14 174.85 90.74 184.02 81.68 192.84
  A 1.51 1.51 0.0 0 1 79.58 192.85
  Q 70.40 184.09 61.53 175.17
  C 58.09 171.71 56.52 168.01 60.28 164.17
  Q 69.97 154.29 80.05 144.71
  A 1.07 1.06 44.8 0 1 81.52 144.71
  C 91.00 153.67 77.06 162.78 71.75 168.48
  Q 71.35 168.92 71.76 169.35
  Z"
/>
<path fill="#ffffff" d="
  M 335.96 168.38
  C 330.63 162.85 316.59 153.48 326.56 144.80
  A 0.97 0.97 0.0 0 1 327.87 144.84
  Q 337.91 154.60 347.57 164.18
  C 350.88 167.46 349.94 171.31 346.80 174.50
  Q 337.44 184.04 327.69 193.30
  A 0.81 0.79 -46.7 0 1 326.63 193.34
  C 316.60 184.92 330.41 175.11 335.94 169.72
  A 0.95 0.95 0.0 0 0 335.96 168.38
  Z"
/>
</svg>
